HIERARCHY
ROOT Hips
{
  OFFSET 267.745 86.9975 -272.335
  CHANNELS 6 Xposition Yposition Zposition Zrotation Xrotation Yrotation
  JOINT LeftUpLeg
  {
    OFFSET 8.64259 1.95398 -2.38835
    CHANNELS 3 Zrotation Xrotation Yrotation
    JOINT LeftLeg
    {
      OFFSET 43.7702 0 0
      CHANNELS 3 Zrotation Xrotation Yrotation
      JOINT LeftFoot
      {
        OFFSET 40.6238 0 0
        CHANNELS 3 Zrotation Xrotation Yrotation
        JOINT LeftToeBase
        {
          OFFSET 12.7242 0 0
          CHANNELS 3 Zrotation Xrotation Yrotation
          End Site
          {
            OFFSET 0 0 0
          }
        }
      }
    }
  }
  JOINT RightUpLeg
  {
    OFFSET -8.2249 1.95398 -2.59336
    CHANNELS 3 Zrotation Xrotation Yrotation
    JOINT RightLeg
    {
      OFFSET 43.5653 0 0
      CHANNELS 3 Zrotation Xrotation Yrotation
      JOINT RightFoot
      {
        OFFSET 40.6238 0 0
        CHANNELS 3 Zrotation Xrotation Yrotation
        JOINT RightToeBase
        {
          OFFSET 12.7242 0 0
          CHANNELS 3 Zrotation Xrotation Yrotation
          End Site
          {
            OFFSET 0 0 0
          }
        }
      }
    }
  }
  JOINT Spine
  {
    OFFSET 0.165834 0.87714 6.61349
    CHANNELS 3 Zrotation Xrotation Yrotation
    JOINT Spine1
    {
      OFFSET 7.38963 1.71661e-005 0
      CHANNELS 3 Zrotation Xrotation Yrotation
      JOINT Spine2
      {
        OFFSET 11.9445 1.14441e-005 0
        CHANNELS 3 Zrotation Xrotation Yrotation
        JOINT Spine3
        {
          OFFSET 14.7254 4.19617e-005 0
          CHANNELS 3 Zrotation Xrotation Yrotation
          JOINT Spine4
          {
            OFFSET 10.9679 0 0
            CHANNELS 3 Zrotation Xrotation Yrotation
            JOINT RightShoulder
            {
              OFFSET 2.46616 -1.6653 3.69651
              CHANNELS 3 Zrotation Xrotation Yrotation
              JOINT RightArm
              {
                OFFSET 13.0012 0 0
                CHANNELS 3 Zrotation Xrotation Yrotation
                JOINT RightForeArm
                {
                  OFFSET 28.7848 1.52588e-005 0
                  CHANNELS 3 Zrotation Xrotation Yrotation
                  JOINT RightHand
                  {
                    OFFSET 26.5688 1.52588e-005 0
                    CHANNELS 3 Zrotation Xrotation Yrotation
                    End Site
                    {
                      OFFSET 0 0 0
                    }
                  }
                }
              }
            }
            JOINT LeftShoulder
            {
              OFFSET 2.38034 -1.29275 -3.7523
              CHANNELS 3 Zrotation Xrotation Yrotation
              JOINT LeftArm
              {
                OFFSET 16.3182 6.10352e-005 0
                CHANNELS 3 Zrotation Xrotation Yrotation
                JOINT LeftForeArm
                {
                  OFFSET 27.0901 0 0
                  CHANNELS 3 Zrotation Xrotation Yrotation
                  JOINT LeftHand
                  {
                    OFFSET 24.5451 1.52588e-005 0
                    CHANNELS 3 Zrotation Xrotation Yrotation
                    End Site
                    {
                      OFFSET 0 0 0
                    }
                  }
                }
              }
            }
            JOINT Neck
            {
              OFFSET 5.0226 -0.0266342 0
              CHANNELS 3 Zrotation Xrotation Yrotation
              JOINT Head
              {
                OFFSET 6.69364 2.86102e-005 0
                CHANNELS 3 Zrotation Xrotation Yrotation
                End Site
                {
                  OFFSET 0 0 0
                }
              }
            }
          }
        }
      }
    }
  }
}
MOTION
Frames:	7
Frame Time:	0.0416667
78.2137 86.7071 94.1717 92.0216 -40.3551 98.8848 -177.943 19.3119 96.5405 -121.762 6.67523 2.54403 45.3163 -2.80608 13.1308 53.4541 -2.95354 -1.95586 168.886 29.3461 101.658 -57.6051 -15.0882 6.63561 68.5294 -3.97738 0.335419 38.9418 -2.50542 1.89785 -0.182062 8.33869 -91.7068 10.1682 -1.14092 -3.29265 -1.50632 -1.28466 -3.23933 -24.0082 -0.0992912 -3.4831 -3.99552 -0.0992774 -3.4831 102.024 -50.0286 -82.3886 24.6867 -18.1888 8.90782 -5.49593 1.61236 -58.8082 -15.7819 -0.377811 -2.45834 -82.3426 -53.9205 90.3391 -11.913 18.0524 0.297869 7.81944 0.981939 -56.2411 15.1059 -1.04505 -10.5736 30.7341 2.57831 -7.33646 -28.0828 2.75838 12.7804 
101.532 89.527 117.276 92.4364 -44.5139 94.0007 -179.442 39.9164 88.0155 -99.1463 -0.848256 3.35913 51.6099 0.302845 14.5245 53.2744 -2.52557 1.71634 174.202 3.29071 91.9321 -46.0036 -16.1536 2.45857 67.3454 -0.28751 7.10383 49.2202 -4.98453 2.54447 0.647896 8.08346 -90.8568 10.7147 0.895091 -1.80017 -0.957256 0.815024 -1.83781 -23.4878 1.39471 -1.44805 -3.47521 1.39472 -1.44804 101.504 -47.7237 -83.2277 21.9902 -24.8917 -0.0961037 -5.91836 7.65752 -74.601 -12.3505 -0.110278 -4.34536 -81.8953 -52.815 90.9101 -18.2564 20.8428 13.7065 4.16745 10.3212 -40.3821 17.4325 -1.01267 -9.64027 24.188 0.406283 -7.15339 -26.0092 1.1171 9.24755 
124.949 94.4349 141.024 89.3161 -48.2609 90.7722 178.267 41.9223 90.2358 -48.3983 10.5133 2.31234 47.9531 -5.35096 9.04556 49.6053 -2.72365 -5.4617 175.714 -18.0434 90.7849 -32.0613 -16.8163 -1.84728 42.7397 14.1794 20.5085 28.9716 0.0674285 -3.07218 1.37009 7.30307 -90.2868 12.2751 2.58729 -0.856784 0.606378 2.54706 -0.969885 -21.9492 2.72505 -0.0390307 -1.93657 2.72504 -0.0390369 102.451 -46.7483 -81.7001 25.8098 -32.4248 5.97439 -11.2008 12.5926 -86.0896 -10.8185 0.172248 -7.19379 -82.5959 -48.5498 89.5191 -26.2062 22.7096 32.4521 4.40942 11.3169 -41.6467 15.7398 -1.00008 -10.0718 12.0816 -1.02192 -3.67725 -20.7786 -0.160885 0.400065 
146.68 94.6699 163.223 96.0754 -51.4874 97.5547 -177.494 30.6503 92.179 -12.2213 8.88443 -0.175847 34.6924 -14.6351 -1.98576 54.1073 -3.70497 -8.34875 179.227 -16.6661 92.0285 -72.4086 -19.6773 -4.64955 42.5021 12.6989 10.7961 33.3643 -1.34129 4.55866 1.50863 7.7543 -90.2396 11.3775 2.89027 -0.769916 -0.290493 2.85356 -0.896481 -22.852 2.98795 0.135123 -2.83934 2.98793 0.135116 102.366 -46.1189 -81.8361 30.2108 -34.8391 12.5911 -14.9995 13.6145 -87.6803 -11.2982 0.0534414 -5.90171 -82.5735 -46.0955 89.3344 -30.7505 18.8755 39.0173 7.54535 10.0141 -46.2516 13.9937 -1.00305 -10.7126 11.0118 -0.211714 -3.37496 -18.7429 0.460028 0.593861 
168.389 89.9601 184.899 102.387 -45.2819 99.8878 -174.974 26.1716 84.869 -38.7694 22.8635 -1.84461 52.9727 -1.19047 21.7425 35.609 -0.406835 -6.25435 173.765 -1.34381 87.5861 -110.025 -14.47 -3.51578 45.0709 9.80374 8.21904 29.3052 0.45409 -6.73864 0.543334 8.50753 -89.7346 9.85668 1.20338 0.429693 -1.81378 1.22115 0.376313 -24.3518 1.01861 0.771522 -4.33912 1.01862 0.77152 103.101 -49.1927 -80.692 33.763 -26.5218 20.6008 -14.275 7.30692 -74.8528 -15.0766 -0.110493 -4.43569 -81.075 -47.1111 91.7807 -18.487 18.3936 19.8295 3.41081 5.54109 -44.144 13.6464 -0.993248 -10.7789 23.9734 2.087 -2.24085 -32.1013 4.60558 -7.20616 
188.554 86.2702 205.357 102.659 -38.6902 94.1845 -177.587 11.2218 75.5739 -58.1659 25.235 0.272575 64.7357 13.4678 31.0658 56.8484 -2.58482 4.87921 175.92 28.5937 79.869 -114.459 -15.7413 -3.22594 42.1144 11.1701 8.42996 42.3413 -3.44113 -1.44471 -0.712629 8.6919 -88.9231 9.48746 -0.935309 2.24328 -2.18555 -0.835706 2.28223 -24.7097 -1.56626 1.85869 -4.69708 -1.56626 1.85869 103.64 -51.7029 -79.9103 33.2967 -20.4806 23.1561 -12.191 -5.32906 -52.1498 -16.6942 -0.540549 -1.46351 -81.0532 -49.6006 91.9654 -7.66571 6.98265 -10.6527 6.65777 9.46774 -40.5612 19.098 -1.39226 -11.1426 31.1561 2.65262 -0.16902 -38.1125 6.33346 -12.1851 
213.602 91.4183 227.531 111.659 -33.7482 114.771 -165.258 -3.99574 112.046 -49.3755 29.8369 9.37024 59.8528 1.63946 10.9934 57.8781 -1.65366 7.73091 168.004 24.006 106.455 -67.6493 -13.5234 1.79822 49.7309 8.41534 8.68124 45.1629 -4.02841 1.88167 -1.17558 9.22752 -90.7334 8.53005 -2.6677 -1.49399 -3.13672 -2.73096 -1.37508 -25.696 -2.09437 -2.2266 -5.68335 -2.09436 -2.22661 99.5131 -49.5049 -86.4013 37.3517 -18.7998 33.6836 -12.6021 -17.2814 -36.6083 -11.4064 -0.195814 -3.36397 -81.5813 -49.7682 91.1627 -7.78437 8.7959 -16.7195 7.63359 -7.35124 -60.3989 20.2044 -2.57218 -17.1696 12.1652 3.40896 11.4236 -17.6504 2.96836 -20.4013 
